<?xml version="1.0" standalone="no"?>
<!DOCTYPE svg PUBLIC "-//W3C//DTD SVG 20010904//EN"
 "http://www.w3.org/TR/2001/REC-SVG-20010904/DTD/svg10.dtd">
<svg version="1.0" xmlns="http://www.w3.org/2000/svg"
 width="927.000000pt" height="927.000000pt" viewBox="0 0 927.000000 927.000000"
 preserveAspectRatio="xMidYMid meet">
<metadata>
Created by potrace 1.11, written by Peter Selinger 2001-2013
</metadata>
<g transform="translate(0.000000,927.000000) scale(0.100000,-0.100000)"
fill="#000000" stroke="none">
<path d="M4405 9239 c-965 -72 -1847 -428 -2595 -1047 -153 -127 -452 -427
-581 -583 -502 -609 -833 -1316 -974 -2082 -179 -976 -35 -1978 411 -2869 30
-59 54 -114 54 -122 0 -8 -160 -542 -357 -1188 -196 -645 -358 -1187 -361
-1204 -8 -60 48 -124 109 -124 12 0 518 180 1126 400 607 220 1109 400 1114
400 6 0 66 -31 133 -69 1018 -576 2205 -737 3346 -454 652 161 1267 473 1799
912 162 134 458 430 592 592 928 1125 1261 2587 913 4006 -158 646 -475 1270
-913 1802 -134 162 -430 458 -592 592 -748 617 -1627 968 -2604 1039 -160 11
-458 11 -620 -1z m436 -2271 c25 -24 76 -72 114 -107 39 -35 158 -148 265
-251 107 -103 226 -216 264 -251 38 -35 137 -130 220 -210 83 -80 182 -175
221 -210 38 -35 119 -112 180 -170 116 -112 128 -123 331 -314 333 -312 342
-324 286 -378 -26 -25 -32 -26 -157 -29 l-130 -3 -3 -1109 -2 -1108 -21 -30
c-12 -16 -42 -38 -66 -49 -42 -18 -74 -19 -504 -19 -432 0 -462 1 -497 19 -20
10 -48 30 -61 44 l-23 25 1 519 c2 637 -2 666 -87 748 -12 13 -36 25 -53 29
-41 8 -727 8 -768 0 -38 -8 -81 -48 -107 -101 -18 -36 -19 -74 -24 -615 l-5
-576 -25 -27 c-14 -15 -42 -36 -62 -46 -35 -18 -65 -19 -497 -19 -430 0 -462
1 -504 19 -24 11 -54 33 -66 49 l-21 30 0 1099 c0 841 -3 1102 -12 1111 -8 8
-52 12 -132 12 -117 0 -121 1 -148 27 -56 54 -47 66 286 378 203 191 215 202
331 314 61 58 142 135 180 170 39 35 138 130 221 210 83 80 182 175 220 210
38 35 157 148 264 251 107 103 226 216 265 251 38 35 89 83 114 107 43 40 49
42 106 42 57 0 63 -2 106 -42z"/>
</g>
</svg>
